<svg height="512pt" viewBox="-34 0 512 512" width="512pt" xmlns="http://www.w3.org/2000/svg"><path d="m343.882812 0h-243.917968c-55.121094 0-99.964844 44.84375-99.964844 99.964844v243.917968c0 55.121094 44.84375 99.964844 99.964844 99.964844h76.328125l45.871093 68.152344 44.5625-68.152344h77.15625c55.121094 0 99.964844-44.84375 99.964844-99.964844v-243.917968c0-55.121094-44.84375-99.964844-99.964844-99.964844zm59.976563 343.882812c0 33.070313-26.90625 59.976563-59.976563 59.976563h-98.785156l-23.414062 35.8125-24.105469-35.8125h-97.613281c-33.070313 0-59.980469-26.90625-59.980469-59.976563v-243.917968c0-33.070313 26.910156-59.980469 59.980469-59.980469h243.917968c33.070313 0 59.976563 26.910156 59.976563 59.980469zm-32.988281-56.445312c-1.984375 3.199219-49.75 78.4375-148.949219 78.4375s-146.960937-75.238281-148.945313-78.4375c-5.820312-9.386719-2.925781-21.710938 6.460938-27.527344 9.359375-5.800781 21.644531-2.9375 27.480469 6.386719.199219.316406 9.976562 15.5 29.132812 30.316406 25.113281 19.425781 54.003907 29.273438 85.871094 29.273438 77.1875 0 114.59375-58.917969 114.960937-59.515625 5.816407-9.386719 18.140626-12.277344 27.527344-6.460938 9.386719 5.816406 12.277344 18.140625 6.460938 27.527344zm-208.925782-34.523438h39.984376v-26.992187h39.988281v26.992187h39.984375v-26.992187h26.992187v-39.984375h-26.992187v-39.988281h26.992187v-39.984375h-26.992187v-26.992188h-39.984375v26.992188h-39.988281v-26.992188h-39.984376v26.992188h-26.992187v39.984375h26.992187v39.988281h-26.992187v39.984375h26.992187zm39.984376-106.964843h39.988281v39.988281h-39.988281zm0 0"/></svg>