<?xml version="1.0" encoding="utf-8"?>
<!-- Generator: Adobe Illustrator 24.3.0, SVG Export Plug-In . SVG Version: 6.00 Build 0)  -->
<svg version="1.1" id="Layer_1" xmlns="http://www.w3.org/2000/svg" xmlns:xlink="http://www.w3.org/1999/xlink" x="0px" y="0px"
	 viewBox="0 0 512 512" style="enable-background:new 0 0 512 512;" xml:space="preserve">
<style type="text/css">
	.st0{fill:#FFFFFF;}
</style>
<path class="st0" d="M377.9,0H134C78.8,0,34,44.8,34,100v243.9c0,55.1,44.8,100,100,100h76.3l45.9,68.2l44.6-68.2h77.2
	c55.1,0,100-44.8,100-100V100C477.8,44.8,433,0,377.9,0z M437.9,343.9c0,33.1-26.9,60-60,60h-98.8l-23.4,35.8l-24.1-35.8H134
	c-33.1,0-60-26.9-60-60V100c0-33.1,26.9-60,60-60h243.9c33.1,0,60,26.9,60,60V343.9z M404.9,287.4c-2,3.2-49.8,78.4-148.9,78.4
	S109,290.6,107,287.4c-5.8-9.4-2.9-21.7,6.5-27.5c9.4-5.8,21.6-2.9,27.5,6.4c0.2,0.3,10,15.5,29.1,30.3c25.1,19.4,54,29.3,85.9,29.3
	c77.2,0,114.6-58.9,115-59.5c5.8-9.4,18.1-12.3,27.5-6.5S410.7,278.1,404.9,287.4z M195.9,252.9h40v-27h40v27h40v-27h27v-40h-27v-40
	h27v-40h-27V79h-40v27h-40V79h-40v27h-27v40h27v40h-27v40h27V252.9z M235.9,145.9h40v40h-40V145.9z"/>
</svg>
