<svg id="Layer_3" data-name="Layer 3" xmlns="http://www.w3.org/2000/svg" viewBox="0 0 444 512.1"><defs><style>.cls-1{fill:#fff;}.cls-2{fill:none;}</style></defs><path class="cls-1" d="M377.9.86H134a100,100,0,0,0-100,100v243.9c5.39,103.05,96.25,104.1,176.3,100L256.2,513l44.6-68.2c80.23,3.89,171.68,3.74,177.2-100V100.86C477.8,45.66,433,.86,377.9.86Zm-210.1,185h27v-40h-27v-40h27v-27h40v27h40v-27h40v26.9h27v40h-27v40h27v40h-27v27h-40v-27h-40v27h-40v-26.9h-27ZM404.94,288.26c-61.1,102.6-237.26,102-297.9,0a20,20,0,0,1,34-21.09c64.15,94.1,196.36,60.58,230,.09C385.15,245.14,418.49,265.69,404.94,288.26Z" transform="translate(-34 -0.86)"/><path class="cls-2" d="M371,267.25c-33.63,60.49-165.84,94-230-.09a20,20,0,0,0-34,21.09c60.64,102,236.8,102.61,297.9,0C418.49,265.69,385.15,245.14,371,267.25Z" transform="translate(-34 -0.86)"/><path class="cls-2" d="M194.8,252.71h40v-27h40v27h40v-27h27v-40h-27v-40h27v-40h-27V78.81h-40v27h-40v-27h-40v27h-27v40h27v40h-27v40h27Zm41-106h40v40h-40Z" transform="translate(-34 -0.86)"/><rect class="cls-1" x="201.8" y="145.85" width="40" height="40"/></svg>